# xmcd
# Copyright (C) 1995-1998 Ti Kan
#
# Track frame offsets:
#       150
#       15192
#       29240
#       40768
#       60160
#       71578
#       83254
#       101960
#       117030
#       126111
#       138062
#       155321
#       163975
#       174815
#
# Disc length: 2486 seconds
#
# Revision: 0
# Processed by: cddbd v1.5.2PL0 Copyright (c) Steve Scherf et al.
# Submitted via: CD-Import v1.0
#
DISCID=a209b40e
DTITLE=James Hunter - People Gonna Talk
DYEAR=06
DGENRE=
TTITLE0=No Smoke Without Fire
TTITLE1=People Gonna Talk
TTITLE2=Riot In My Heart
TTITLE3=Mollena
TTITLE4='till Your Fool Comes Home
TTITLE5=Watch and Chain
TTITLE6=It's Easy To Say
TTITLE7=I'll Walk Away
TTITLE8=You Can't Win
TTITLE9=Kick It Around
TTITLE10=Tell Her For Me
TTITLE11=Don't Come Back
TTITLE12=Talkin' 'bout My Love
TTITLE13=All Through Cryin'
EXTD=
EXTT0=
EXTT1=
EXTT2=
EXTT3=
EXTT4=
EXTT5=
EXTT6=
EXTT7=
EXTT8=
EXTT9=
EXTT10=
EXTT11=
EXTT12=
EXTT13=
PLAYORDER=
